# Blender v2.79 (sub 0) OBJ File: ''
# www.blender.org
mtllib Shockwave.mtl
o Cylinder
v 0.000000 -0.421769 -1.000000
v 0.223425 0.421769 -1.543983
v 0.195090 -0.421769 -0.980785
v 0.524642 0.421769 -1.514316
v 0.382683 -0.421769 -0.923880
v 0.814282 0.421769 -1.426454
v 0.555570 -0.421769 -0.831470
v 1.081217 0.421769 -1.283775
v 0.707107 -0.421769 -0.707107
v 1.315187 0.421769 -1.091761
v 0.831470 -0.421769 -0.555570
v 1.507201 0.421769 -0.857791
v 0.923880 -0.421769 -0.382683
v 1.649880 0.421769 -0.590857
v 0.980785 -0.421769 -0.195090
v 1.737741 0.421769 -0.301216
v 1.000000 -0.421769 -0.000000
v 1.767409 0.421769 -0.000000
v 0.980785 -0.421769 0.195090
v 1.737741 0.421769 0.301216
v 0.923880 -0.421769 0.382683
v 1.649880 0.421769 0.590856
v 0.831470 -0.421769 0.555570
v 1.507201 0.421769 0.857791
v 0.707107 -0.421769 0.707107
v 1.315187 0.421769 1.091761
v 0.555570 -0.421769 0.831470
v 1.081217 0.421769 1.283775
v 0.382683 -0.421769 0.923880
v 0.814282 0.421769 1.426455
v 0.195090 -0.421769 0.980785
v 0.524641 0.421769 1.514316
v -0.000000 -0.421769 1.000000
v 0.223425 0.421769 1.543983
v 0.866386 0.421769 -0.926390
v 1.192463 0.421769 -0.308797
v 1.192463 0.421769 0.308797
v 0.866385 0.421769 0.926390
v 0.642960 -0.421769 -0.600000
v 0.969038 -0.421769 -0.200000
v 0.969038 -0.421769 0.200000
v 0.642960 -0.421769 0.600000
vt 0.797951 0.225665
vt 0.999952 0.142212
vt 0.898340 0.127000
vt 0.787072 0.192981
vt 0.818487 0.100374
vt 0.760176 0.171192
vt 0.760331 0.074195
vt 0.723855 0.160060
vt 0.711604 0.056917
vt 0.685283 0.157329
vt 0.654031 0.052333
vt 0.650548 0.144320
vt 0.605736 0.042285
vt 0.606580 0.131662
vt 0.562464 0.032642
vt 0.557197 0.121536
vt 0.510439 0.035185
vt 0.503202 0.106525
vt 0.460980 0.018227
vt 0.446884 0.106837
vt 0.416315 0.015229
vt 0.398097 0.101434
vt 0.366035 0.011498
vt 0.351348 0.104620
vt 0.307810 0.000047
vt 0.303597 0.074595
vt 0.253316 0.003494
vt 0.254662 0.075102
vt 0.187670 0.014695
vt 0.218352 0.104620
vt 0.102780 0.021066
vt 0.188613 0.119726
vt 0.000047 0.009890
vt 0.170981 0.149777
vt 0.313920 0.122599
vt 0.440307 0.128200
vt 0.558241 0.137320
vt 0.677915 0.160233
vt 0.731428 0.084189
vt 0.576232 0.069757
vt 0.437394 0.048571
vt 0.279772 0.024452
vn 0.0815 -0.5553 -0.8276
vn 0.2357 -0.5836 -0.7771
vn 0.3741 -0.6084 -0.6999
vn 0.4930 -0.6293 -0.6007
vn 0.5900 -0.6461 -0.4842
vn 0.6636 -0.6587 -0.3547
vn 0.7130 -0.6670 -0.2163
vn 0.7377 -0.6712 -0.0727
vn 0.7377 -0.6712 0.0727
vn 0.7130 -0.6670 0.2163
vn 0.6636 -0.6587 0.3547
vn 0.5900 -0.6461 0.4842
vn 0.4930 -0.6293 0.6007
vn 0.3741 -0.6084 0.6999
vn 0.2357 -0.5836 0.7771
vn 0.0815 -0.5553 0.8276
vn 0.0000 -1.0000 0.0000
vn 0.0000 1.0000 -0.0000
vn -0.5394 0.4945 -0.6816
vn -0.5394 0.4945 0.6816
vn -0.7916 0.3405 0.5073
vn -0.9667 0.2560 -0.0000
vn -0.7916 0.3405 -0.5073
usemtl Material.001
s off
f 1/1/1 2/2/1 4/3/1 3/4/1
f 3/4/2 4/3/2 6/5/2 5/6/2
f 5/6/3 6/5/3 8/7/3 7/8/3
f 7/8/4 8/7/4 10/9/4 9/10/4
f 9/10/5 10/9/5 12/11/5 11/12/5
f 11/12/6 12/11/6 14/13/6 13/14/6
f 13/14/7 14/13/7 16/15/7 15/16/7
f 15/16/8 16/15/8 18/17/8 17/18/8
f 17/18/9 18/17/9 20/19/9 19/20/9
f 19/20/10 20/19/10 22/21/10 21/22/10
f 21/22/11 22/21/11 24/23/11 23/24/11
f 23/24/12 24/23/12 26/25/12 25/26/12
f 25/26/13 26/25/13 28/27/13 27/28/13
f 27/28/14 28/27/14 30/29/14 29/30/14
f 29/30/15 30/29/15 32/31/15 31/32/15
f 31/32/16 32/31/16 34/33/16 33/34/16
f 1/1/17 3/4/17 5/6/17 7/8/17 9/10/17 11/12/17 13/14/17 15/16/17 17/18/17 19/20/17 21/22/17 23/24/17 29/30/17 31/32/17 33/34/17 42/35/17 41/36/17 40/37/17 39/38/17
f 4/3/18 2/2/18 35/39/18 36/40/18 37/41/18 38/42/18 34/33/18 32/31/18 30/29/18 28/27/18 26/25/18 24/23/18 22/21/18 20/19/18 18/17/18 16/15/18 14/13/18 12/11/18 10/9/18 8/7/18 6/5/18
f 42/35/19 33/34/19 34/33/19 38/42/19
f 1/1/20 39/38/20 35/39/20 2/2/20
f 39/38/21 40/37/21 36/40/21 35/39/21
f 40/37/22 41/36/22 37/41/22 36/40/22
f 41/36/23 42/35/23 38/42/23 37/41/23
