# Blender v2.79 (sub 0) OBJ File: 'Spike.blend'
# www.blender.org
mtllib Spike.mtl
o Cylinder
v 0.000000 -0.334639 -1.000000
v -0.000000 0.334639 -1.369723
v 0.195090 -0.334639 -0.980785
v 0.267220 0.334639 -1.343405
v 0.382683 -0.334639 -0.923880
v 0.524171 0.334639 -1.265459
v 0.555570 -0.334639 -0.831470
v 0.760978 0.334639 -1.138883
v 0.707107 -0.334639 -0.707107
v 0.968541 0.334639 -0.968541
v 0.831470 -0.334639 -0.555570
v 1.138883 0.334639 -0.760977
v 0.923880 -0.334639 -0.382683
v 1.265460 0.334639 -0.524170
v 0.980785 -0.334639 -0.195090
v 1.343405 0.334639 -0.267220
v 1.000000 -0.334639 -0.000000
v 1.369724 0.334639 0.000000
v 0.980785 -0.334639 0.195090
v 1.343405 0.334639 0.267220
v 0.923880 -0.334639 0.382683
v 1.265460 0.334639 0.524170
v 0.831470 -0.334639 0.555570
v 1.138883 0.334639 0.760978
v 0.707107 -0.334639 0.707107
v 0.968541 0.334639 0.968541
v 0.555570 -0.334639 0.831470
v 0.760978 0.334639 1.138884
v 0.382683 -0.334639 0.923880
v 0.524170 0.334639 1.265460
v 0.195090 -0.334639 0.980785
v 0.267219 0.334639 1.343405
v -0.000000 -0.334639 1.000000
v -0.000000 0.334639 1.369724
v -0.195091 -0.334639 0.980785
v -0.267220 0.334639 1.343405
v -0.382684 -0.334639 0.923879
v -0.524171 0.334639 1.265459
v -0.555571 -0.334639 0.831469
v -0.760978 0.334639 1.138883
v -0.707107 -0.334639 0.707106
v -0.968542 0.334639 0.968540
v -0.831470 -0.334639 0.555570
v -1.138884 0.334639 0.760977
v -0.923880 -0.334639 0.382683
v -1.265460 0.334639 0.524170
v -0.980785 -0.334639 0.195089
v -1.343405 0.334639 0.267219
v -1.000000 -0.334639 -0.000001
v -1.369723 0.334639 -0.000001
v -0.980785 -0.334639 -0.195091
v -1.343404 0.334639 -0.267221
v -0.923879 -0.334639 -0.382684
v -1.265459 0.334639 -0.524172
v -0.831469 -0.334639 -0.555571
v -1.138883 0.334639 -0.760979
v -0.707106 -0.334639 -0.707108
v -0.968540 0.334639 -0.968542
v -0.555569 -0.334639 -0.831470
v -0.760976 0.334639 -1.138884
v -0.382682 -0.334639 -0.923880
v -0.524169 0.334639 -1.265460
v -0.195089 -0.334639 -0.980786
v -0.267218 0.334639 -1.343405
v 0.209551 0.576390 -1.053484
v -0.000000 0.576390 -1.074123
v 0.411049 0.576390 -0.992360
v 0.596751 0.576390 -0.893101
v 0.759520 0.576390 -0.759520
v 0.893101 0.576390 -0.596751
v 0.992360 0.576390 -0.411049
v 1.053484 0.576390 -0.209551
v 1.074123 0.576390 0.000000
v 1.053484 0.576390 0.209551
v 0.992360 0.576390 0.411049
v 0.893101 0.576390 0.596751
v 0.759520 0.576390 0.759520
v 0.596751 0.576390 0.893101
v 0.411049 0.576390 0.992361
v 0.209551 0.576390 1.053484
v -0.000000 0.576390 1.074123
v -0.209552 0.576390 1.053484
v -0.411050 0.576390 0.992360
v -0.596751 0.576390 0.893101
v -0.759520 0.576390 0.759519
v -0.893101 0.576390 0.596750
v -0.992361 0.576390 0.411048
v -1.053484 0.576390 0.209550
v -1.074123 0.576390 -0.000001
v -1.053484 0.576390 -0.209552
v -0.992360 0.576390 -0.411050
v -0.893100 0.576390 -0.596752
v -0.759519 0.576390 -0.759521
v -0.596750 0.576390 -0.893101
v -0.411048 0.576390 -0.992361
v -0.209549 0.576390 -1.053484
v 0.267220 0.576390 -1.343405
v -0.000000 0.576390 -1.369723
v 0.524171 0.576390 -1.265459
v 0.760978 0.576390 -1.138883
v 0.968541 0.576390 -0.968541
v 1.138883 0.576390 -0.760977
v 1.265460 0.576390 -0.524170
v 1.343405 0.576390 -0.267220
v 1.369724 0.576390 0.000000
v 1.343405 0.576390 0.267220
v 1.265460 0.576390 0.524170
v 1.138883 0.576390 0.760978
v 0.968541 0.576390 0.968541
v 0.760978 0.576390 1.138884
v 0.524170 0.576390 1.265460
v 0.267219 0.576390 1.343405
v -0.000000 0.576390 1.369724
v -0.267220 0.576390 1.343405
v -0.524171 0.576390 1.265459
v -0.760978 0.576390 1.138883
v -0.968542 0.576390 0.968540
v -1.138884 0.576390 0.760977
v -1.265460 0.576390 0.524170
v -1.343405 0.576390 0.267219
v -1.369723 0.576390 -0.000001
v -1.343404 0.576390 -0.267221
v -1.265459 0.576390 -0.524172
v -1.138883 0.576390 -0.760979
v -0.968540 0.576390 -0.968542
v -0.760976 0.576390 -1.138884
v -0.524169 0.576390 -1.265460
v -0.267218 0.576390 -1.343405
v 0.209551 1.034516 -1.053484
v -0.000000 1.034516 -1.074123
v 0.411049 1.034516 -0.992360
v 0.596751 1.034516 -0.893101
v 0.759520 1.034516 -0.759520
v 0.893101 1.034516 -0.596751
v 0.992360 1.034516 -0.411049
v 1.053484 1.034516 -0.209551
v 1.074123 1.034516 0.000000
v 1.053484 1.034516 0.209551
v 0.992360 1.034516 0.411049
v 0.893101 1.034516 0.596751
v 0.759520 1.034516 0.759520
v 0.596751 1.034516 0.893101
v 0.411049 1.034516 0.992361
v 0.209551 1.034516 1.053484
v -0.000000 1.034516 1.074123
v -0.209552 1.034516 1.053484
v -0.411050 1.034516 0.992360
v -0.596752 1.034516 0.893101
v -0.759520 1.034516 0.759519
v -0.893101 1.034516 0.596750
v -0.992361 1.034516 0.411048
v -1.053484 1.034516 0.209550
v -1.074123 1.034516 -0.000001
v -1.053484 1.034516 -0.209552
v -0.992360 1.034516 -0.411050
v -0.893100 1.034516 -0.596752
v -0.759519 1.034516 -0.759521
v -0.596750 1.034516 -0.893101
v -0.411048 1.034516 -0.992361
v -0.209549 1.034516 -1.053484
vt 0.316580 0.341059
vt 0.316580 0.216939
vt 0.360119 0.219005
vt 0.348367 0.342567
vt 0.403267 0.225184
vt 0.379868 0.347079
vt 0.445636 0.235421
vt 0.410800 0.354552
vt 0.486845 0.249623
vt 0.440886 0.364921
vt 0.526525 0.267664
vt 0.469855 0.378092
vt 0.564318 0.289380
vt 0.497447 0.393947
vt 0.599884 0.314578
vt 0.523413 0.412343
vt 0.632906 0.343030
vt 0.547521 0.433115
vt 0.547521 0.000254
vt 0.632906 0.090339
vt 0.599885 0.118791
vt 0.523413 0.021026
vt 0.564318 0.143989
vt 0.497447 0.039422
vt 0.526525 0.165705
vt 0.469855 0.055277
vt 0.486845 0.183746
vt 0.440886 0.068448
vt 0.445636 0.197949
vt 0.410801 0.078817
vt 0.403267 0.208185
vt 0.379868 0.086291
vt 0.360119 0.214365
vt 0.348367 0.090802
vt 0.316580 0.216430
vt 0.316580 0.092310
vt 0.273041 0.214365
vt 0.284793 0.090802
vt 0.229893 0.208185
vt 0.253292 0.086291
vt 0.187524 0.197949
vt 0.222360 0.078817
vt 0.146315 0.183746
vt 0.192274 0.068448
vt 0.106635 0.165706
vt 0.163305 0.055277
vt 0.068842 0.143989
vt 0.135713 0.039422
vt 0.033276 0.118792
vt 0.109747 0.021027
vt 0.000254 0.090340
vt 0.085639 0.000255
vt 0.085639 0.433115
vt 0.000254 0.343030
vt 0.033276 0.314578
vt 0.109747 0.412343
vt 0.068843 0.289380
vt 0.135713 0.393947
vt 0.106636 0.267664
vt 0.163305 0.378092
vt 0.146315 0.249623
vt 0.192274 0.364921
vt 0.187524 0.235421
vt 0.222360 0.354552
vt 0.229893 0.225184
vt 0.253292 0.347079
vt 0.639723 0.701526
vt 0.607584 0.732959
vt 0.580865 0.704430
vt 0.611422 0.672590
vt 0.273041 0.219005
vt 0.284794 0.342567
vt 0.817693 0.433624
vt 0.848904 0.439832
vt 0.878304 0.452010
vt 0.904764 0.469689
vt 0.927266 0.492191
vt 0.944945 0.518651
vt 0.957123 0.548051
vt 0.963331 0.579262
vt 0.963332 0.611084
vt 0.957123 0.642295
vt 0.944946 0.671695
vt 0.927266 0.698154
vt 0.904764 0.720657
vt 0.878305 0.738336
vt 0.848904 0.750514
vt 0.817693 0.756723
vt 0.785870 0.756723
vt 0.754659 0.750514
vt 0.725259 0.738336
vt 0.698799 0.720656
vt 0.676297 0.698155
vt 0.658618 0.671695
vt 0.646440 0.642295
vt 0.640232 0.611084
vt 0.640232 0.579261
vt 0.646440 0.548050
vt 0.658618 0.518650
vt 0.676298 0.492191
vt 0.698800 0.469689
vt 0.725259 0.452009
vt 0.754660 0.439832
vt 0.785871 0.433623
vt 0.034436 0.999746
vt 0.000254 0.999746
vt 0.000254 0.925378
vt 0.034436 0.925378
vt 0.274467 0.436140
vt 0.319843 0.433623
vt 0.320193 0.472686
vt 0.279168 0.474929
vt 0.067148 0.761908
vt 0.032545 0.731689
vt 0.060369 0.702548
vt 0.091346 0.730706
vt 0.496101 0.810137
vt 0.454046 0.827417
vt 0.440882 0.790613
vt 0.478951 0.775015
vt 0.453649 0.456299
vt 0.495648 0.473613
vt 0.479078 0.509013
vt 0.441138 0.493296
vt 0.066752 0.521233
vt 0.103997 0.495285
vt 0.124858 0.528320
vt 0.090897 0.551910
vt 0.274772 0.847438
vt 0.229986 0.839847
vt 0.238294 0.801691
vt 0.278776 0.808588
vt 0.607432 0.551926
vt 0.639723 0.585630
vt 0.608737 0.614279
vt 0.579609 0.581067
vt 0.229643 0.443697
vt 0.238635 0.481730
vt 0.104471 0.788114
vt 0.124934 0.754691
vt 0.535980 0.788331
vt 0.515119 0.755296
vt 0.409991 0.443768
vt 0.401684 0.481925
vt 0.032393 0.550657
vt 0.059112 0.579186
vt 0.365510 0.847476
vt 0.320134 0.849992
vt 0.319784 0.810930
vt 0.360809 0.808686
vt 0.572829 0.521707
vt 0.548632 0.552909
vt 0.185931 0.456198
vt 0.199095 0.493003
vt 0.144329 0.810002
vt 0.160900 0.774602
vt 0.573225 0.762383
vt 0.549080 0.731706
vt 0.365205 0.436178
vt 0.361201 0.475027
vt 0.000254 0.582091
vt 0.028555 0.611026
vt 0.410334 0.839919
vt 0.401342 0.801885
vt 0.535506 0.495501
vt 0.515044 0.528924
vt 0.143876 0.473478
vt 0.161026 0.508601
vt 0.186329 0.827316
vt 0.198839 0.790320
vt 0.000254 0.697985
vt 0.031240 0.669336
vt 0.319784 0.763187
vt 0.355487 0.761225
vt 0.390760 0.755295
vt 0.425166 0.745465
vt 0.458281 0.731851
vt 0.489702 0.714601
vt 0.519055 0.693872
vt 0.545977 0.669755
vt 0.569958 0.642062
vt 0.567215 0.641553
vt 0.544981 0.614022
vt 0.518705 0.589960
vt 0.489673 0.569250
vt 0.458437 0.551985
vt 0.425440 0.538333
vt 0.391110 0.528451
vt 0.355881 0.522458
vt 0.320193 0.520428
vt 0.284490 0.522390
vt 0.249217 0.528321
vt 0.214811 0.538150
vt 0.181696 0.551765
vt 0.150275 0.569015
vt 0.120922 0.589743
vt 0.094000 0.613861
vt 0.070019 0.641554
vt 0.072763 0.642062
vt 0.094996 0.669593
vt 0.121273 0.693655
vt 0.150304 0.714365
vt 0.181541 0.731630
vt 0.214538 0.745282
vt 0.248867 0.755164
vt 0.284096 0.761158
vt 0.973795 0.224393
vt 0.960714 0.255973
vt 0.941724 0.284393
vt 0.917554 0.308563
vt 0.889134 0.327554
vt 0.857554 0.340634
vt 0.824030 0.347303
vt 0.789848 0.347303
vt 0.756323 0.340634
vt 0.724744 0.327553
vt 0.696323 0.308564
vt 0.672154 0.284394
vt 0.653163 0.255973
vt 0.640083 0.224394
vt 0.633415 0.190869
vt 0.633415 0.156688
vt 0.640083 0.123163
vt 0.653164 0.091584
vt 0.672154 0.063163
vt 0.696324 0.038993
vt 0.724744 0.020003
vt 0.756324 0.006923
vt 0.789848 0.000254
vt 0.824030 0.000254
vt 0.857554 0.006923
vt 0.889134 0.020003
vt 0.917554 0.038993
vt 0.941724 0.063163
vt 0.960714 0.091584
vt 0.973795 0.123163
vt 0.980463 0.156688
vt 0.980463 0.190869
vt 0.410430 0.850500
vt 0.444611 0.850500
vt 0.444611 0.924869
vt 0.410430 0.924869
vt 0.068617 0.999746
vt 0.068617 0.925378
vt 0.376249 0.850500
vt 0.376249 0.924869
vt 0.102798 0.999746
vt 0.102798 0.925377
vt 0.342067 0.850500
vt 0.342067 0.924869
vt 0.307886 0.999745
vt 0.273704 0.999745
vt 0.273704 0.925377
vt 0.307886 0.925377
vt 0.136980 0.999746
vt 0.136979 0.925377
vt 0.307886 0.850500
vt 0.307886 0.924869
vt 0.342067 0.999745
vt 0.342067 0.925377
vt 0.171161 0.999746
vt 0.171161 0.925377
vt 0.273705 0.850500
vt 0.273705 0.924869
vt 0.376248 0.999745
vt 0.376248 0.925377
vt 0.205342 0.999746
vt 0.205342 0.925377
vt 0.239523 0.850500
vt 0.239523 0.924869
vt 0.410430 0.999745
vt 0.410430 0.925377
vt 0.239524 0.999745
vt 0.239523 0.925377
vt 0.205342 0.850500
vt 0.205342 0.924869
vt 0.444611 0.999745
vt 0.444611 0.925377
vt 0.171161 0.850501
vt 0.171161 0.924869
vt 0.478792 0.999745
vt 0.478792 0.925377
vt 0.136979 0.850501
vt 0.136980 0.924869
vt 0.512974 0.999745
vt 0.512974 0.925377
vt 0.102798 0.850501
vt 0.102798 0.924869
vt 0.547155 0.999745
vt 0.547155 0.925377
vt 0.068617 0.850501
vt 0.068617 0.924869
vt 0.512974 0.850500
vt 0.547155 0.850500
vt 0.547155 0.924869
vt 0.512974 0.924869
vt 0.034436 0.850501
vt 0.034436 0.924869
vt 0.478793 0.850500
vt 0.478793 0.924869
vt 0.000254 0.850501
vt 0.000254 0.924869
vn 0.0000 -0.8474 -0.5310
vn 0.0000 -0.2460 -0.9693
vn 0.1891 -0.2460 -0.9506
vn 0.1036 -0.8474 -0.5207
vn 0.3709 -0.2460 -0.8955
vn 0.2032 -0.8474 -0.4905
vn 0.5385 -0.2460 -0.8059
vn 0.2950 -0.8474 -0.4415
vn 0.6854 -0.2460 -0.6854
vn 0.3754 -0.8474 -0.3754
vn 0.8059 -0.2460 -0.5385
vn 0.4415 -0.8474 -0.2950
vn 0.8955 -0.2460 -0.3709
vn 0.4905 -0.8474 -0.2032
vn 0.9506 -0.2460 -0.1891
vn 0.5207 -0.8474 -0.1036
vn 0.9693 -0.2460 0.0000
vn 0.5310 -0.8474 0.0000
vn 0.9506 -0.2460 0.1891
vn 0.5207 -0.8474 0.1036
vn 0.8955 -0.2460 0.3709
vn 0.4905 -0.8474 0.2032
vn 0.8059 -0.2460 0.5385
vn 0.4415 -0.8474 0.2950
vn 0.6854 -0.2460 0.6854
vn 0.3754 -0.8474 0.3754
vn 0.5385 -0.2460 0.8059
vn 0.2950 -0.8474 0.4415
vn 0.3709 -0.2460 0.8955
vn 0.2032 -0.8474 0.4905
vn 0.1891 -0.2460 0.9506
vn 0.1036 -0.8474 0.5207
vn 0.0000 -0.2460 0.9693
vn 0.0000 -0.8474 0.5310
vn -0.1891 -0.2460 0.9506
vn -0.1036 -0.8474 0.5207
vn -0.3709 -0.2460 0.8955
vn -0.2032 -0.8474 0.4905
vn -0.5385 -0.2460 0.8059
vn -0.2950 -0.8474 0.4415
vn -0.6854 -0.2460 0.6854
vn -0.3754 -0.8474 0.3754
vn -0.8059 -0.2460 0.5385
vn -0.4415 -0.8474 0.2950
vn -0.8955 -0.2460 0.3709
vn -0.4905 -0.8474 0.2032
vn -0.9506 -0.2460 0.1891
vn -0.5207 -0.8474 0.1036
vn -0.9693 -0.2460 0.0000
vn -0.5310 -0.8474 0.0000
vn -0.9506 -0.2460 -0.1891
vn -0.5207 -0.8474 -0.1036
vn -0.8955 -0.2460 -0.3709
vn -0.4905 -0.8474 -0.2032
vn -0.8059 -0.2460 -0.5385
vn -0.4415 -0.8474 -0.2950
vn -0.6854 -0.2460 -0.6854
vn -0.3754 -0.8474 -0.3754
vn -0.5385 -0.2460 -0.8059
vn -0.2950 -0.8474 -0.4415
vn -0.3709 -0.2460 -0.8955
vn -0.2032 -0.8474 -0.4905
vn 0.7139 0.6857 -0.1420
vn 0.7279 0.6857 0.0000
vn -0.1891 -0.2460 -0.9506
vn -0.1036 -0.8474 -0.5207
vn -0.6705 0.7298 -0.1334
vn -0.6836 0.7298 0.0000
vn -0.7279 0.6857 0.0000
vn -0.7139 0.6857 -0.1420
vn 0.0000 0.6857 0.7279
vn -0.1420 0.6857 0.7139
vn -0.6725 0.6857 -0.2785
vn 0.4044 0.6857 -0.6052
vn 0.5147 0.6857 -0.5147
vn 0.5147 0.6857 0.5147
vn 0.4044 0.6857 0.6052
vn -0.6052 0.6857 0.4044
vn -0.6725 0.6857 0.2785
vn -0.2785 0.6857 -0.6725
vn -0.1420 0.6857 -0.7139
vn 0.7139 0.6857 0.1420
vn -0.2785 0.6857 0.6725
vn -0.6052 0.6857 -0.4044
vn 0.6052 0.6857 -0.4044
vn 0.2785 0.6857 0.6725
vn -0.7139 0.6857 0.1420
vn 0.0000 0.6857 -0.7279
vn 0.1420 0.6857 -0.7139
vn 0.6725 0.6857 0.2785
vn -0.4044 0.6857 0.6052
vn -0.5147 0.6857 -0.5147
vn 0.6725 0.6857 -0.2785
vn 0.1420 0.6857 0.7139
vn 0.2785 0.6857 -0.6725
vn 0.6052 0.6857 0.4044
vn -0.5147 0.6857 0.5147
vn -0.4044 0.6857 -0.6052
vn 0.0000 0.7298 -0.6836
vn 0.1333 0.7298 -0.6705
vn 0.2616 0.7298 -0.6316
vn 0.3798 0.7298 -0.5684
vn 0.4834 0.7298 -0.4834
vn 0.5684 0.7298 -0.3798
vn 0.6316 0.7298 -0.2616
vn 0.6705 0.7298 -0.1333
vn 0.6836 0.7298 0.0000
vn 0.6705 0.7298 0.1333
vn 0.6316 0.7298 0.2616
vn 0.5684 0.7298 0.3798
vn 0.4834 0.7298 0.4834
vn 0.3798 0.7298 0.5684
vn 0.2616 0.7298 0.6316
vn 0.1333 0.7298 0.6705
vn 0.0000 0.7298 0.6836
vn -0.1333 0.7298 0.6705
vn -0.2616 0.7298 0.6316
vn -0.3798 0.7298 0.5684
vn -0.4834 0.7298 0.4834
vn -0.5684 0.7298 0.3798
vn -0.6316 0.7298 0.2616
vn -0.6705 0.7298 0.1333
vn -0.6316 0.7298 -0.2616
vn -0.5684 0.7298 -0.3798
vn -0.4834 0.7298 -0.4834
vn -0.3798 0.7298 -0.5684
vn -0.2616 0.7298 -0.6316
vn -0.1333 0.7298 -0.6705
usemtl Material.001
s 1
f 1/1/1 2/2/2 4/3/3 3/4/4
f 3/4/4 4/3/3 6/5/5 5/6/6
f 5/6/6 6/5/5 8/7/7 7/8/8
f 7/8/8 8/7/7 10/9/9 9/10/10
f 9/10/10 10/9/9 12/11/11 11/12/12
f 11/12/12 12/11/11 14/13/13 13/14/14
f 13/14/14 14/13/13 16/15/15 15/16/16
f 15/16/16 16/15/15 18/17/17 17/18/18
f 17/19/18 18/20/17 20/21/19 19/22/20
f 19/22/20 20/21/19 22/23/21 21/24/22
f 21/24/22 22/23/21 24/25/23 23/26/24
f 23/26/24 24/25/23 26/27/25 25/28/26
f 25/28/26 26/27/25 28/29/27 27/30/28
f 27/30/28 28/29/27 30/31/29 29/32/30
f 29/32/30 30/31/29 32/33/31 31/34/32
f 31/34/32 32/33/31 34/35/33 33/36/34
f 33/36/34 34/35/33 36/37/35 35/38/36
f 35/38/36 36/37/35 38/39/37 37/40/38
f 37/40/38 38/39/37 40/41/39 39/42/40
f 39/42/40 40/41/39 42/43/41 41/44/42
f 41/44/42 42/43/41 44/45/43 43/46/44
f 43/46/44 44/45/43 46/47/45 45/48/46
f 45/48/46 46/47/45 48/49/47 47/50/48
f 47/50/48 48/49/47 50/51/49 49/52/50
f 49/53/50 50/54/49 52/55/51 51/56/52
f 51/56/52 52/55/51 54/57/53 53/58/54
f 53/58/54 54/57/53 56/59/55 55/60/56
f 55/60/56 56/59/55 58/61/57 57/62/58
f 57/62/58 58/61/57 60/63/59 59/64/60
f 59/64/60 60/63/59 62/65/61 61/66/62
f 18/67/17 16/68/15 104/69/63 105/70/64
f 61/66/62 62/65/61 64/71/65 63/72/66
f 63/72/66 64/71/65 2/2/2 1/1/1
f 1/73/1 3/74/4 5/75/6 7/76/8 9/77/10 11/78/12 13/79/14 15/80/16 17/81/18 19/82/20 21/83/22 23/84/24 25/85/26 27/86/28 29/87/30 31/88/32 33/89/34 35/90/36 37/91/38 39/92/40 41/93/42 43/94/44 45/95/46 47/96/48 49/97/50 51/98/52 53/99/54 55/100/56 57/101/58 59/102/60 61/103/62 63/104/66
f 90/105/67 89/106/68 153/107/69 154/108/70
f 36/109/35 34/110/33 113/111/71 114/112/72
f 54/113/53 52/114/51 122/115/70 123/116/73
f 10/117/9 8/118/7 100/119/74 101/120/75
f 28/121/27 26/122/25 109/123/76 110/124/77
f 46/125/45 44/126/43 118/127/78 119/128/79
f 64/129/65 62/130/61 127/131/80 128/132/81
f 20/133/19 18/134/17 105/135/64 106/136/82
f 38/137/37 36/109/35 114/112/72 115/138/83
f 56/139/55 54/113/53 123/116/73 124/140/84
f 12/141/11 10/117/9 101/120/75 102/142/85
f 30/143/29 28/121/27 110/124/77 111/144/86
f 48/145/47 46/125/45 119/128/79 120/146/87
f 4/147/3 2/148/2 98/149/88 97/150/89
f 2/148/2 64/129/65 128/132/81 98/149/88
f 22/151/21 20/133/19 106/136/82 107/152/90
f 40/153/39 38/137/37 115/138/83 116/154/91
f 58/155/57 56/139/55 124/140/84 125/156/92
f 14/157/13 12/141/11 102/142/85 103/158/93
f 32/159/31 30/143/29 111/144/86 112/160/94
f 50/161/49 48/145/47 120/146/87 121/162/69
f 6/163/5 4/147/3 97/150/89 99/164/95
f 24/165/23 22/151/21 107/152/90 108/166/96
f 42/167/41 40/153/39 116/154/91 117/168/97
f 60/169/59 58/155/57 125/156/92 126/170/98
f 16/68/15 14/157/13 103/158/93 104/69/63
f 34/110/33 32/159/31 112/160/94 113/111/71
f 52/114/51 50/171/49 121/172/69 122/115/70
f 8/118/7 6/163/5 99/164/95 100/119/74
f 26/122/25 24/165/23 108/166/96 109/123/76
f 44/126/43 42/167/41 117/168/97 118/127/78
f 62/130/61 60/169/59 126/170/98 127/131/80
f 66/173/99 65/174/100 97/150/89 98/149/88
f 65/174/100 67/175/101 99/164/95 97/150/89
f 67/175/101 68/176/102 100/119/74 99/164/95
f 68/176/102 69/177/103 101/120/75 100/119/74
f 69/177/103 70/178/104 102/142/85 101/120/75
f 70/178/104 71/179/105 103/158/93 102/142/85
f 71/179/105 72/180/106 104/69/63 103/158/93
f 72/180/106 73/181/107 105/70/64 104/69/63
f 73/182/107 74/183/108 106/136/82 105/135/64
f 74/183/108 75/184/109 107/152/90 106/136/82
f 75/184/109 76/185/110 108/166/96 107/152/90
f 76/185/110 77/186/111 109/123/76 108/166/96
f 77/186/111 78/187/112 110/124/77 109/123/76
f 78/187/112 79/188/113 111/144/86 110/124/77
f 79/188/113 80/189/114 112/160/94 111/144/86
f 80/189/114 81/190/115 113/111/71 112/160/94
f 81/190/115 82/191/116 114/112/72 113/111/71
f 82/191/116 83/192/117 115/138/83 114/112/72
f 83/192/117 84/193/118 116/154/91 115/138/83
f 84/193/118 85/194/119 117/168/97 116/154/91
f 85/194/119 86/195/120 118/127/78 117/168/97
f 86/195/120 87/196/121 119/128/79 118/127/78
f 87/196/121 88/197/122 120/146/87 119/128/79
f 88/197/122 89/198/68 121/162/69 120/146/87
f 89/199/68 90/200/67 122/115/70 121/172/69
f 90/200/67 91/201/123 123/116/73 122/115/70
f 91/201/123 92/202/124 124/140/84 123/116/73
f 92/202/124 93/203/125 125/156/92 124/140/84
f 93/203/125 94/204/126 126/170/98 125/156/92
f 94/204/126 95/205/127 127/131/80 126/170/98
f 95/205/127 96/206/128 128/132/81 127/131/80
f 96/206/128 66/173/99 98/149/88 128/132/81
f 129/207/89 130/208/88 160/209/81 159/210/80 158/211/98 157/212/92 156/213/84 155/214/73 154/215/70 153/216/69 152/217/87 151/218/79 150/219/78 149/220/97 148/221/91 147/222/83 146/223/72 145/224/71 144/225/94 143/226/86 142/227/77 141/228/76 140/229/96 139/230/90 138/231/82 137/232/64 136/233/63 135/234/93 134/235/85 133/236/75 132/237/74 131/238/95
f 77/239/111 76/240/110 140/241/96 141/242/76
f 91/243/123 90/105/67 154/108/70 155/244/73
f 78/245/112 77/239/111 141/242/76 142/246/77
f 92/247/124 91/243/123 155/244/73 156/248/84
f 79/249/113 78/245/112 142/246/77 143/250/86
f 65/251/100 66/252/99 130/253/88 129/254/89
f 93/255/125 92/247/124 156/248/84 157/256/92
f 80/257/114 79/249/113 143/250/86 144/258/94
f 67/259/101 65/251/100 129/254/89 131/260/95
f 94/261/126 93/255/125 157/256/92 158/262/98
f 81/263/115 80/257/114 144/258/94 145/264/71
f 68/265/102 67/259/101 131/260/95 132/266/74
f 95/267/127 94/261/126 158/262/98 159/268/80
f 82/269/116 81/263/115 145/264/71 146/270/72
f 69/271/103 68/265/102 132/266/74 133/272/75
f 96/273/128 95/267/127 159/268/80 160/274/81
f 83/275/117 82/269/116 146/270/72 147/276/83
f 70/277/104 69/271/103 133/272/75 134/278/85
f 66/252/99 96/273/128 160/274/81 130/253/88
f 84/279/118 83/275/117 147/276/83 148/280/91
f 71/281/105 70/277/104 134/278/85 135/282/93
f 85/283/119 84/279/118 148/280/91 149/284/97
f 72/285/106 71/281/105 135/282/93 136/286/63
f 86/287/120 85/283/119 149/284/97 150/288/78
f 73/289/107 72/285/106 136/286/63 137/290/64
f 87/291/121 86/287/120 150/288/78 151/292/79
f 74/293/108 73/294/107 137/295/64 138/296/82
f 88/297/122 87/291/121 151/292/79 152/298/87
f 75/299/109 74/293/108 138/296/82 139/300/90
f 89/301/68 88/297/122 152/298/87 153/302/69
f 76/240/110 75/299/109 139/300/90 140/241/96
