# Blender v2.79 (sub 0) OBJ File: 'Tank.blend'
# www.blender.org
mtllib Tank.mtl
o Cube
v 0.788007 -0.512401 -0.512401
v 0.788007 -0.512401 0.324597
v 0.743961 0.410507 -0.512401
v 0.743960 0.410507 0.324149
v 0.788007 -0.512401 -1.243766
v 0.743961 0.261414 -1.243766
v 0.788007 -0.512401 -1.680655
v 0.743961 0.126277 -1.637986
v 0.268526 -0.512401 -1.680655
v 0.895088 -0.512401 -0.512401
v 0.895088 -0.512401 0.512401
v 0.268525 -0.512401 -0.512401
v 0.268525 -0.512401 0.324597
v 0.895089 -0.512401 -1.243766
v 0.268526 -0.512401 -1.243766
v 0.895089 -0.512401 -1.868458
v 0.788007 -0.730530 -0.512401
v 0.268525 -0.730530 -0.512401
v 0.268525 -0.730530 0.324597
v 0.788007 -0.730530 -1.243766
v 0.268526 -0.730530 -1.243766
v 0.788007 -0.730530 0.324597
v 0.788007 -0.730529 -1.680655
v 0.268526 -0.730529 -1.680655
v 0.788007 -0.892810 -0.512401
v 0.268525 -0.892810 -0.512401
v 0.268525 -0.892810 0.183397
v 0.788007 -0.892810 -1.243766
v 0.268526 -0.892810 -1.243766
v 0.788007 -0.892810 0.183397
v 0.788007 -0.892809 -1.509075
v 0.268526 -0.892809 -1.509075
v 0.447544 -0.512401 0.512401
v 0.447544 0.410507 -0.512401
v 0.447544 0.410507 0.324149
v 0.447545 0.261414 -1.243766
v 0.447545 -0.512401 -1.868458
v 0.447545 0.126277 -1.637986
v 0.528266 -0.512401 0.324597
v 0.528266 -0.512401 -1.680655
v 0.528266 -0.730530 0.324597
v 0.528266 -0.730529 -1.680655
v 0.528266 -0.892810 -0.512401
v 0.528266 -0.892810 -1.243766
v 0.528266 -0.892810 0.183397
v 0.528266 -0.892809 -1.509075
v 0.447544 0.410507 -0.094126
v 0.350035 0.758082 -0.444852
v 0.350036 0.641472 -1.016870
v 0.350035 0.758082 -0.117709
v 0.223772 0.410507 -0.094126
v 0.175018 0.758082 -0.117709
v 0.134025 0.509772 0.129684
v 0.104825 0.717948 0.115559
v 0.079362 0.556520 0.151362
v 0.062071 0.679788 0.142998
v 0.079361 0.604177 0.853755
v 0.062070 0.727446 0.845391
v 0.079361 0.645159 1.457770
v 0.062070 0.768428 1.449407
v 0.079361 0.650303 1.533580
v 0.062070 0.773571 1.525216
v 0.062070 0.803847 1.447003
v 0.062070 0.808990 1.522813
v 0.079361 0.616804 1.459694
v 0.079361 0.621948 1.535504
v 0.107830 0.646475 1.457681
v 0.090539 0.769744 1.449317
v 0.107830 0.651619 1.533491
v 0.090539 0.774888 1.525127
v 0.090539 0.810307 1.522724
v 0.090539 0.805163 1.446914
v 0.107830 0.623265 1.535415
v 0.107830 0.618121 1.459605
v -0.788007 -0.512401 -0.512401
v -0.788007 -0.512401 0.324597
v -0.743961 0.410507 -0.512401
v -0.743960 0.410507 0.324149
v 0.000000 -0.512401 -0.512401
v 0.000000 -0.512401 0.512401
v 0.000000 0.410507 -0.512401
v 0.000000 0.410507 0.324149
v -0.788007 -0.512401 -1.243766
v -0.743961 0.261414 -1.243766
v 0.000000 -0.512401 -1.243766
v 0.000000 0.261414 -1.243766
v -0.788007 -0.512401 -1.680655
v -0.743961 0.126277 -1.637986
v -0.268526 -0.512401 -1.680655
v 0.000000 0.126277 -1.637986
v -0.895088 -0.512401 -0.512401
v -0.895088 -0.512401 0.512401
v -0.268525 -0.512401 -0.512401
v -0.268525 -0.512401 0.324597
v -0.895089 -0.512401 -1.243766
v -0.268526 -0.512401 -1.243766
v -0.895089 -0.512401 -1.868458
v 0.000000 -0.512401 -1.868458
v -0.788007 -0.730530 -0.512401
v -0.268525 -0.730530 -0.512401
v -0.268525 -0.730530 0.324597
v -0.788007 -0.730530 -1.243766
v -0.268526 -0.730530 -1.243766
v -0.788007 -0.730530 0.324597
v -0.788007 -0.730529 -1.680655
v -0.268526 -0.730529 -1.680655
v -0.788007 -0.892810 -0.512401
v -0.268525 -0.892810 -0.512401
v -0.268525 -0.892810 0.183397
v -0.788007 -0.892810 -1.243766
v -0.268526 -0.892810 -1.243766
v -0.788007 -0.892810 0.183397
v -0.788007 -0.892809 -1.509075
v -0.268526 -0.892809 -1.509075
v -0.447544 -0.512401 0.512401
v -0.447544 0.410507 -0.512401
v -0.447544 0.410507 0.324149
v -0.447545 0.261414 -1.243766
v -0.447545 -0.512401 -1.868458
v -0.447545 0.126277 -1.637986
v -0.528266 -0.512401 0.324597
v -0.528266 -0.512401 -1.680655
v -0.528266 -0.730530 0.324597
v -0.528266 -0.730529 -1.680655
v -0.528266 -0.892810 -0.512401
v -0.528266 -0.892810 -1.243766
v -0.528266 -0.892810 0.183397
v -0.528266 -0.892809 -1.509075
v 0.000000 0.410507 -0.094126
v -0.447544 0.410507 -0.094126
v -0.350035 0.758082 -0.444852
v 0.000000 0.758082 -0.444852
v -0.350036 0.641472 -1.016870
v 0.000000 0.641472 -1.016870
v 0.000000 0.758082 -0.117709
v -0.350035 0.758082 -0.117709
v -0.223772 0.410507 -0.094126
v -0.175018 0.758082 -0.117709
v 0.000000 0.717948 0.115559
v 0.000000 0.509772 0.129684
v -0.134025 0.509772 0.129684
v -0.104825 0.717948 0.115559
v 0.000000 0.679788 0.142998
v 0.000000 0.556520 0.151362
v -0.079362 0.556520 0.151362
v -0.062071 0.679788 0.142998
v 0.000000 0.727446 0.845391
v 0.000000 0.604177 0.853755
v -0.079361 0.604177 0.853755
v -0.062070 0.727446 0.845391
v 0.000000 0.768428 1.449407
v 0.000000 0.645159 1.457770
v -0.079361 0.645159 1.457770
v -0.062070 0.768428 1.449407
v 0.000000 0.773571 1.525216
v 0.000000 0.650303 1.533580
v -0.079361 0.650303 1.533580
v -0.062070 0.773571 1.525216
v 0.000000 0.803847 1.447003
v -0.062070 0.803847 1.447003
v 0.000000 0.808990 1.522813
v -0.062070 0.808990 1.522813
v 0.000000 0.616804 1.459694
v -0.079361 0.616804 1.459694
v 0.000000 0.621948 1.535504
v -0.079361 0.621948 1.535504
v -0.107830 0.646475 1.457681
v -0.090539 0.769744 1.449317
v -0.107830 0.651619 1.533491
v -0.090539 0.774888 1.525127
v -0.090539 0.810307 1.522724
v -0.090539 0.805163 1.446914
v -0.107830 0.623265 1.535415
v -0.107830 0.618121 1.459605
vt 0.306243 0.716730
vt 0.280885 0.865999
vt 0.147362 0.843315
vt 0.142673 0.688942
vt 0.422987 0.736502
vt 0.401672 0.862356
vt 0.071513 0.702588
vt 0.100232 0.852353
vt 0.029072 0.865999
vt 0.000353 0.716233
vt 0.591150 0.736932
vt 0.591150 0.773160
vt 0.591150 0.809388
vt 0.523432 0.809388
vt 0.523432 0.736932
vt 0.848079 0.956492
vt 0.777347 0.956492
vt 0.777347 0.921177
vt 0.848079 0.921177
vt 0.779710 0.736932
vt 0.779710 0.688942
vt 0.847179 0.688942
vt 0.847179 0.736932
vt 0.658868 0.736932
vt 0.658868 0.688942
vt 0.386516 0.416003
vt 0.386516 0.373952
vt 0.421831 0.373952
vt 0.421831 0.416003
vt 0.877378 0.373952
vt 0.877378 0.483879
vt 0.804921 0.483879
vt 0.804921 0.373952
vt 0.522726 0.753262
vt 0.468321 0.851866
vt 0.658941 0.956492
vt 0.658941 0.921177
vt 0.030758 0.476663
vt 0.166267 0.476663
vt 0.166267 0.494000
vt 0.000353 0.494000
vt 0.030758 0.434612
vt 0.000353 0.421543
vt 0.166267 0.392560
vt 0.030758 0.392560
vt 0.000353 0.349086
vt 0.166267 0.349086
vt 0.284673 0.476663
vt 0.284673 0.494000
vt 0.284673 0.392560
vt 0.284673 0.349086
vt 0.355405 0.434612
vt 0.355405 0.392560
vt 0.385810 0.349087
vt 0.385810 0.421543
vt 0.355405 0.476663
vt 0.385810 0.494000
vt 0.658941 0.894904
vt 0.777347 0.894904
vt 0.768900 0.416003
vt 0.768900 0.458055
vt 0.730665 0.458055
vt 0.730665 0.416003
vt 0.838889 0.156908
vt 0.909621 0.156932
vt 0.881833 0.183196
vt 0.838880 0.183181
vt 0.720495 0.121552
vt 0.838902 0.121593
vt 0.720483 0.156867
vt 0.523432 0.956492
vt 0.523432 0.921177
vt 0.909633 0.121618
vt 0.804214 0.416003
vt 0.804215 0.458055
vt 0.584987 0.121505
vt 0.584974 0.156820
vt 0.569305 0.416003
vt 0.456657 0.416003
vt 0.456657 0.373952
vt 0.569305 0.373952
vt 0.687712 0.373952
vt 0.687712 0.416003
vt 0.730665 0.373952
vt 0.546292 0.894904
vt 0.720474 0.183140
vt 0.607825 0.183101
vt 0.820300 0.894904
vt 0.421831 0.458055
vt 0.456657 0.458055
vt 0.687712 0.458055
vt 0.569305 0.458055
vt 0.804214 0.373952
vt 0.768900 0.373952
vt 0.925367 0.373952
vt 0.949834 0.483879
vt 0.386516 0.458055
vt 0.779710 0.809388
vt 0.847179 0.809388
vt 0.523432 0.688942
vt 0.758140 0.510506
vt 0.797774 0.495315
vt 0.794798 0.548651
vt 0.777643 0.566422
vt 0.812904 0.619115
vt 0.836802 0.563219
vt 0.920644 0.585847
vt 0.913992 0.645749
vt 0.765337 0.594443
vt 0.991081 0.555914
vt 0.999647 0.643427
vt 0.868137 0.511929
vt 0.725453 0.494706
vt 0.729355 0.536668
vt 0.710199 0.529976
vt 0.737366 0.567822
vt 0.731408 0.580607
vt 0.726162 0.578896
vt 0.727982 0.567788
vt 0.719521 0.544994
vt 0.707082 0.535587
vt 0.607502 0.590303
vt 0.613743 0.606602
vt 0.532265 0.637385
vt 0.526195 0.620632
vt 0.603481 0.580097
vt 0.616947 0.615517
vt 0.905297 0.247441
vt 0.905720 0.264532
vt 0.896003 0.264013
vt 0.897934 0.250411
vt 0.522287 0.609989
vt 0.535365 0.645749
vt 0.875753 0.217310
vt 0.889652 0.225867
vt 0.886972 0.241981
vt 0.875753 0.246458
vt 0.893167 0.227017
vt 0.890917 0.241148
vt 0.889031 0.246935
vt 0.891852 0.244590
vt 0.879628 0.254058
vt 0.891609 0.222477
vt 0.893456 0.224310
vt 0.896994 0.205116
vt 0.899535 0.219721
vt 0.880318 0.211828
vt 0.903359 0.204173
vt 0.905993 0.221948
vt 0.900585 0.225778
vt 0.900565 0.243333
vt 0.898939 0.223428
vt 0.896826 0.246935
vt 0.302038 0.688132
vt 0.136124 0.688236
vt 0.166507 0.536810
vt 0.301943 0.536725
vt 0.420428 0.560471
vt 0.420444 0.688117
vt 0.068239 0.662908
vt 0.000353 0.637579
vt 0.053660 0.494706
vt 0.121545 0.520034
vt 0.652692 0.072810
vt 0.584974 0.072810
vt 0.584974 0.000353
vt 0.652692 0.000353
vt 0.652692 0.036582
vt 0.325000 0.866705
vt 0.325000 0.902020
vt 0.254268 0.902020
vt 0.254268 0.866705
vt 0.841252 0.072810
vt 0.908721 0.072810
vt 0.908721 0.120799
vt 0.841252 0.120799
vt 0.392255 0.000484
vt 0.495814 0.057893
vt 0.435073 0.167462
vt 0.319811 0.131165
vt 0.720410 0.072810
vt 0.720410 0.120799
vt 0.523432 0.852146
vt 0.558747 0.852146
vt 0.558747 0.894198
vt 0.523432 0.894198
vt 0.398163 0.866705
vt 0.470619 0.866705
vt 0.470619 0.976632
vt 0.398163 0.976632
vt 0.484392 0.581936
vt 0.521581 0.688236
vt 0.584268 0.106928
vt 0.501501 0.179271
vt 0.135862 0.902020
vt 0.135862 0.866705
vt 0.030758 0.221510
vt 0.000353 0.204173
vt 0.166267 0.204173
vt 0.166267 0.221510
vt 0.030758 0.263561
vt 0.000353 0.276630
vt 0.166267 0.305613
vt 0.030758 0.305613
vt 0.284673 0.204173
vt 0.284673 0.221510
vt 0.284673 0.305613
vt 0.355405 0.263561
vt 0.385810 0.276630
vt 0.355405 0.305613
vt 0.385810 0.204173
vt 0.355405 0.221510
vt 0.254268 0.928293
vt 0.135862 0.928293
vt 0.905815 0.852146
vt 0.867581 0.852146
vt 0.867581 0.810095
vt 0.905815 0.810095
vt 0.254268 0.955272
vt 0.254268 0.928999
vt 0.297221 0.928999
vt 0.325000 0.955272
vt 0.135862 0.990586
vt 0.135862 0.955272
vt 0.254268 0.990586
vt 0.000353 0.902020
vt 0.000353 0.866705
vt 0.325000 0.990586
vt 0.941130 0.852146
vt 0.941130 0.810095
vt 0.000353 0.990586
vt 0.000353 0.955272
vt 0.706221 0.852146
vt 0.706221 0.894198
vt 0.593573 0.894198
vt 0.593573 0.852146
vt 0.824628 0.852146
vt 0.824628 0.894198
vt 0.867581 0.894198
vt 0.023213 0.928293
vt 0.023213 0.928999
vt 0.135862 0.928999
vt 0.297221 0.928292
vt 0.558747 0.810095
vt 0.593573 0.810095
vt 0.824628 0.810095
vt 0.706221 0.810095
vt 0.941130 0.894198
vt 0.905815 0.894198
vt 0.350173 0.866705
vt 0.325706 0.976632
vt 0.523432 0.810095
vt 0.373113 0.203467
vt 0.282964 0.175078
vt 0.841252 0.000353
vt 0.908721 0.000353
vt 0.584974 0.120799
vt 0.635427 0.357367
vt 0.656713 0.297751
vt 0.675084 0.319289
vt 0.676621 0.373245
vt 0.700673 0.250509
vt 0.795759 0.232536
vt 0.798583 0.288324
vt 0.716419 0.304276
vt 0.645595 0.268517
vt 0.236642 0.149399
vt 0.260585 0.098332
vt 0.862988 0.319751
vt 0.875047 0.238927
vt 0.745658 0.356003
vt 0.599645 0.373245
vt 0.584464 0.334741
vt 0.605240 0.328249
vt 0.614869 0.295246
vt 0.604890 0.294924
vt 0.603423 0.283025
vt 0.609086 0.281432
vt 0.206762 0.125405
vt 0.221103 0.094820
vt 0.205872 0.117848
vt 0.102675 0.069462
vt 0.111167 0.051351
vt 0.214364 0.099737
vt 0.595008 0.318990
vt 0.581329 0.328599
vt 0.476922 0.266263
vt 0.391107 0.230691
vt 0.398245 0.213002
vt 0.484228 0.249066
vt 0.472229 0.277027
vt 0.487998 0.239652
vt 0.852312 0.732026
vt 0.860031 0.733886
vt 0.863934 0.747057
vt 0.854398 0.748995
vt 0.386516 0.241927
vt 0.401882 0.204173
vt 0.013931 0.027852
vt 0.022423 0.009741
vt 0.877119 0.697891
vt 0.881392 0.726724
vt 0.869638 0.723940
vt 0.864625 0.708393
vt 0.002793 0.022630
vt 0.011285 0.004519
vt 0.865614 0.723694
vt 0.861317 0.710045
vt 0.868328 0.729142
vt 0.865193 0.727236
vt 0.878673 0.734810
vt 0.860634 0.707410
vt 0.862192 0.705326
vt 0.011491 0.033056
vt 0.000353 0.027834
vt 0.854320 0.688942
vt 0.871800 0.693137
vt 0.853948 0.703762
vt 0.013238 0.000353
vt 0.024376 0.005576
vt 0.847885 0.688942
vt 0.847885 0.706912
vt 0.853797 0.709907
vt 0.856390 0.727269
vt 0.855081 0.707341
vt 0.860617 0.730285
vn 0.9857 0.1685 -0.0089
vn 0.6253 0.7769 -0.0729
vn 0.5320 0.6710 0.5164
vn 0.6770 0.2519 0.6915
vn 0.9806 0.1945 -0.0231
vn 0.6234 0.7590 -0.1876
vn -0.0000 0.1999 0.9798
vn -0.0000 0.7746 0.6325
vn 0.2608 0.9369 0.2330
vn 0.3082 0.6383 0.7054
vn 0.0000 1.0000 0.0000
vn 0.3015 -0.9045 -0.3015
vn 0.7071 -0.7071 0.0000
vn 1.0000 0.0000 0.0000
vn 0.6280 -0.3078 -0.7148
vn 0.1347 0.8977 -0.4195
vn 0.5369 0.6340 -0.5566
vn 0.0000 0.7128 -0.7014
vn 0.6200 0.7803 -0.0823
vn -0.0000 -0.7071 0.7071
vn -0.3015 -0.9045 0.3015
vn -0.6361 -0.2704 0.7227
vn -0.0000 -0.3504 0.9366
vn 0.0000 0.3394 -0.9406
vn 0.6278 0.3766 -0.6812
vn 0.3015 -0.9045 0.3015
vn 0.0000 -1.0000 -0.0000
vn -0.7071 -0.7071 -0.0000
vn 0.0000 -0.7071 -0.7071
vn -0.3015 -0.9045 -0.3015
vn 0.0000 -0.3955 -0.9185
vn 0.6326 -0.7196 -0.2864
vn 0.0000 -0.9291 -0.3698
vn -1.0000 -0.0000 -0.0000
vn -0.6280 -0.3078 -0.7148
vn -0.6326 -0.7196 -0.2864
vn 0.6361 -0.2704 0.7227
vn -0.0000 -0.9101 0.4145
vn -0.6246 -0.7107 0.3237
vn 0.6246 -0.7107 0.3237
vn 0.0000 0.7767 -0.6299
vn 0.4877 0.6617 0.5695
vn 0.2448 0.8875 0.3904
vn 0.0000 0.9949 -0.1004
vn 0.5842 0.8078 -0.0787
vn 0.5125 0.7235 -0.4625
vn 0.0000 0.8157 -0.5785
vn -0.0000 0.9964 0.0851
vn -0.0000 -0.9141 0.4054
vn 0.5602 -0.4292 0.7085
vn -0.0000 -0.7130 0.7012
vn 0.5017 0.6446 0.5769
vn -0.0000 0.8478 0.5302
vn -0.0000 0.9048 0.4258
vn 0.4529 0.6091 0.6511
vn 0.4803 -0.3781 0.7914
vn -0.0000 -0.8241 0.5664
vn 0.9903 0.1383 -0.0094
vn 0.6563 0.7528 -0.0511
vn 0.3020 0.2863 -0.9093
vn 0.2951 -0.3184 -0.9009
vn 0.0000 -0.9977 0.0677
vn 0.0000 0.9977 -0.0677
vn 0.0000 0.6576 -0.7534
vn -0.0162 0.6518 -0.7582
vn 0.0000 -0.7534 -0.6576
vn 0.0000 0.0677 0.9977
vn 0.7203 0.0969 0.6868
vn 0.6891 0.0968 0.7182
vn -0.0162 0.7482 0.6632
vn 0.5650 0.6293 0.5336
vn 0.0000 0.7534 0.6576
vn 0.0165 -0.6629 0.7485
vn 0.5893 -0.5221 0.6166
vn 0.0165 -0.7579 -0.6521
vn 0.0000 -0.6576 0.7534
vn 0.7203 0.0032 -0.6936
vn 0.6891 -0.0011 -0.7247
vn 0.5893 -0.6006 -0.5404
vn 0.5650 0.5515 -0.6137
vn -0.9857 0.1685 -0.0089
vn -0.6770 0.2519 0.6915
vn -0.5320 0.6710 0.5164
vn -0.6253 0.7769 -0.0729
vn -0.6234 0.7590 -0.1876
vn -0.9806 0.1945 -0.0231
vn -0.2608 0.9369 0.2330
vn -0.3082 0.6383 0.7054
vn -0.1347 0.8977 -0.4195
vn -0.5369 0.6340 -0.5566
vn -0.6200 0.7803 -0.0823
vn -0.6278 0.3766 -0.6812
vn -0.2448 0.8875 0.3904
vn -0.4877 0.6617 0.5695
vn -0.5125 0.7235 -0.4625
vn -0.5842 0.8078 -0.0787
vn -0.5602 -0.4292 0.7085
vn -0.5017 0.6446 0.5769
vn -0.4529 0.6091 0.6511
vn -0.4803 -0.3781 0.7914
vn -0.9903 0.1383 -0.0094
vn -0.2951 -0.3184 -0.9009
vn -0.3020 0.2863 -0.9093
vn -0.6563 0.7528 -0.0511
vn 0.0162 0.6518 -0.7582
vn -0.6891 0.0968 0.7182
vn -0.7203 0.0969 0.6868
vn 0.0162 0.7482 0.6632
vn -0.5650 0.6293 0.5336
vn -0.5893 -0.5221 0.6166
vn -0.0165 -0.6629 0.7485
vn -0.0165 -0.7579 -0.6521
vn -0.7203 0.0032 -0.6936
vn -0.6891 -0.0011 -0.7247
vn -0.5893 -0.6006 -0.5404
vn -0.5650 0.5515 -0.6137
usemtl Material
s 1
f 10/1/1 3/2/2 4/3/3 11/4/4
f 3/2/2 10/1/1 14/5/5 6/6/6
f 33/7/7 35/8/8 82/9/8 80/10/7
f 47/11/9 51/12/10 129/13/11 82/14/8 35/15/8
f 7/16/12 5/17/13 20/18/14 23/19/15
f 36/20/16 6/21/6 8/22/17 38/23/18
f 34/24/19 3/25/2 6/21/6 36/20/16
f 39/26/20 13/27/21 19/28/22 41/29/23
f 38/30/18 37/31/24 98/32/24 90/33/18
f 6/6/6 14/5/5 16/34/25 8/35/17
f 5/17/13 1/36/13 17/37/14 20/18/14
f 2/38/26 1/39/13 10/40/27 11/41/27
f 39/42/20 2/38/26 11/41/27 33/43/27
f 12/44/28 13/45/21 80/46/27 79/47/27
f 1/39/13 5/48/13 14/49/27 10/40/27
f 15/50/28 12/44/28 79/47/27 85/51/27
f 40/52/29 9/53/30 98/54/27 37/55/27
f 5/48/13 7/56/12 16/57/27 14/49/27
f 9/53/30 15/50/28 85/51/27 98/54/27
f 20/18/14 17/37/14 25/58/13 28/59/13
f 42/60/31 23/61/15 31/62/32 46/63/33
f 21/64/34 24/65/35 32/66/36 29/67/28
f 12/68/28 15/69/28 21/64/34 18/70/34
f 1/36/13 2/71/26 22/72/37 17/37/14
f 15/69/28 9/73/30 24/65/35 21/64/34
f 40/74/29 7/75/12 23/61/15 42/60/31
f 13/76/21 12/68/28 18/70/34 19/77/22
f 43/78/27 45/79/38 27/80/39 26/81/28
f 43/78/27 26/81/28 29/82/28 44/83/27
f 44/83/27 29/82/28 32/84/36 46/63/33
f 17/37/14 22/72/37 30/85/40 25/58/13
f 19/77/22 18/70/34 26/86/28 27/87/39
f 23/19/15 20/18/14 28/59/13 31/88/32
f 18/70/34 21/64/34 29/67/28 26/86/28
f 41/29/23 19/28/22 27/80/39 45/79/38
f 22/89/37 41/29/23 45/79/38 30/90/40
f 28/91/13 44/83/27 46/63/33 31/62/32
f 25/92/13 43/78/27 44/83/27 28/91/13
f 25/92/13 30/90/40 45/79/38 43/78/27
f 9/93/30 40/74/29 42/60/31 24/94/35
f 24/94/35 42/60/31 46/63/33 32/84/36
f 7/56/12 40/52/29 37/55/27 16/57/27
f 13/45/21 39/42/20 33/43/27 80/46/27
f 8/95/17 16/96/25 37/31/24 38/30/18
f 2/97/26 39/26/20 41/29/23 22/89/37
f 86/98/41 36/20/16 38/23/18 90/99/18
f 3/25/2 34/24/19 47/11/9 35/15/8 4/100/3
f 11/4/4 4/3/3 35/8/8 33/7/7
f 51/101/10 47/102/9 50/103/42 52/104/43
f 132/105/44 48/106/45 49/107/46 134/108/47
f 48/106/45 132/105/44 135/109/48 52/104/43 50/103/42
f 36/110/16 86/111/41 134/108/47 49/107/46
f 34/112/19 36/110/16 49/107/46 48/106/45
f 47/102/9 34/112/19 48/106/45 50/103/42
f 129/113/49 51/101/10 53/114/50 140/115/51
f 54/116/52 139/117/53 143/118/54 56/119/55
f 52/104/43 135/109/48 139/117/53 54/116/52
f 51/101/10 52/104/43 54/116/52 53/114/50
f 53/114/50 54/116/52 56/119/55 55/120/56
f 140/115/51 53/114/50 55/120/56 144/121/57
f 57/122/58 58/123/59 60/124/60 59/125/61
f 55/120/56 56/119/55 58/123/59 57/122/58
f 144/121/57 55/120/56 57/122/62 148/126/62
f 56/119/55 143/118/54 147/127/63 58/123/59
f 60/128/60 151/129/64 159/130/64 63/131/65
f 148/126/62 57/122/62 59/125/61 152/132/66
f 58/123/59 147/127/63 151/133/64 60/124/60
f 156/134/67 61/135/67 62/136/67 155/137/67
f 62/136/67 61/135/67 69/138/68 70/139/69
f 64/140/70 62/136/67 70/139/69 71/141/71
f 63/131/65 159/130/64 161/142/72 64/140/70
f 61/135/67 66/143/73 73/144/74 69/138/68
f 155/137/67 62/136/67 64/140/70 161/142/72
f 163/145/66 65/146/75 66/143/73 165/147/76
f 61/135/67 156/134/67 165/147/76 66/143/73
f 152/148/66 59/149/61 65/146/75 163/145/66
f 67/150/77 68/151/78 70/139/69 69/138/68
f 67/150/77 69/138/68 73/144/74 74/152/79
f 70/139/69 68/151/78 72/153/80 71/141/71
f 65/146/75 59/149/61 67/150/77 74/152/79
f 66/143/73 65/146/75 74/152/79 73/144/74
f 59/149/61 60/128/60 68/151/78 67/150/77
f 60/128/60 63/131/65 72/153/80 68/151/78
f 63/131/65 64/140/70 71/141/71 72/153/80
f 91/154/81 92/155/82 78/156/83 77/157/84
f 77/157/84 84/158/85 95/159/86 91/154/81
f 115/160/7 80/161/7 82/162/8 117/163/8
f 130/164/87 117/165/8 82/166/8 129/167/11 137/168/88
f 87/169/30 105/170/35 102/171/34 83/172/28
f 118/173/89 120/174/18 88/175/90 84/176/85
f 79/177/14 85/178/14 86/179/14 81/180/14
f 116/181/91 118/173/89 84/176/85 77/182/84
f 121/183/20 123/184/23 101/185/37 94/186/26
f 120/187/18 90/188/18 98/189/24 119/190/24
f 84/158/85 88/191/90 97/192/92 95/159/86
f 85/178/14 98/193/14 90/194/14 86/179/14
f 83/172/28 102/171/34 99/195/34 75/196/28
f 76/197/21 92/198/27 91/199/27 75/200/28
f 121/201/20 115/202/27 92/198/27 76/197/21
f 93/203/13 79/47/27 80/46/27 94/204/26
f 75/200/28 91/199/27 95/205/27 83/206/28
f 96/207/13 85/51/27 79/47/27 93/203/13
f 122/208/29 119/209/27 98/54/27 89/210/12
f 83/206/28 95/205/27 97/211/27 87/212/30
f 89/210/12 98/54/27 85/51/27 96/207/13
f 102/171/34 110/213/28 107/214/28 99/195/34
f 124/215/31 128/216/33 113/217/36 105/218/35
f 103/219/14 111/220/13 114/221/32 106/222/15
f 93/223/13 100/224/14 103/219/14 96/225/13
f 75/196/28 99/195/34 104/226/22 76/227/21
f 96/225/13 103/219/14 106/222/15 89/228/12
f 122/229/29 124/215/31 105/218/35 87/230/30
f 94/231/26 101/232/37 100/224/14 93/223/13
f 125/233/27 108/234/13 109/235/40 127/236/38
f 125/233/27 126/237/27 111/238/13 108/234/13
f 126/237/27 128/216/33 114/239/32 111/238/13
f 99/195/34 107/214/28 112/240/39 104/226/22
f 101/232/37 109/241/40 108/242/13 100/224/14
f 105/170/35 113/243/36 110/213/28 102/171/34
f 100/224/14 108/242/13 111/220/13 103/219/14
f 123/184/23 127/236/38 109/235/40 101/185/37
f 104/244/22 112/245/39 127/236/38 123/184/23
f 110/246/28 113/217/36 128/216/33 126/237/27
f 107/247/28 110/246/28 126/237/27 125/233/27
f 107/247/28 125/233/27 127/236/38 112/245/39
f 89/248/12 106/249/15 124/215/31 122/229/29
f 106/249/15 114/239/32 128/216/33 124/215/31
f 87/212/30 97/211/27 119/209/27 122/208/29
f 94/204/26 80/46/27 115/202/27 121/201/20
f 88/250/90 120/187/18 119/190/24 97/251/92
f 76/252/21 104/244/22 123/184/23 121/183/20
f 86/179/14 134/253/14 132/254/14 81/180/14
f 86/255/41 90/256/18 120/174/18 118/173/89
f 77/182/84 78/257/83 117/165/8 130/164/87 116/181/91
f 92/155/82 115/160/7 117/163/8 78/156/83
f 137/258/88 138/259/93 136/260/94 130/261/87
f 132/262/44 134/263/47 133/264/95 131/265/96
f 131/265/96 136/260/94 138/259/93 135/266/48 132/262/44
f 81/180/14 132/254/14 135/267/14 129/268/14
f 118/269/89 133/264/95 134/263/47 86/270/41
f 116/271/91 131/265/96 133/264/95 118/269/89
f 130/261/87 136/260/94 131/265/96 116/271/91
f 129/272/49 140/273/51 141/274/97 137/258/88
f 142/275/98 146/276/99 143/277/54 139/278/53
f 138/259/93 142/275/98 139/278/53 135/266/48
f 135/267/14 139/279/14 140/280/14 129/268/14
f 137/258/88 141/274/97 142/275/98 138/259/93
f 143/281/14 147/282/14 148/283/14 144/284/14
f 139/279/14 143/281/14 144/284/14 140/280/14
f 141/274/97 145/285/100 146/276/99 142/275/98
f 140/273/51 144/286/57 145/285/100 141/274/97
f 149/287/101 153/288/102 154/289/103 150/290/104
f 145/285/100 149/287/101 150/290/104 146/276/99
f 144/286/57 148/291/62 149/287/62 145/285/100
f 146/276/99 150/290/104 147/292/63 143/277/54
f 154/293/103 160/294/105 159/295/64 151/296/64
f 148/291/62 152/297/66 153/288/102 149/287/62
f 150/290/104 154/289/103 151/298/64 147/292/63
f 147/282/14 151/299/14 152/300/14 148/283/14
f 156/301/67 155/302/67 158/303/67 157/304/67
f 151/299/14 155/305/14 156/306/14 152/300/14
f 158/303/67 170/307/106 169/308/107 157/304/67
f 162/309/108 171/310/109 170/307/106 158/303/67
f 160/294/105 162/309/108 161/311/72 159/295/64
f 157/304/67 169/308/107 173/312/110 166/313/111
f 151/299/14 159/314/14 161/315/14 155/305/14
f 155/302/67 161/311/72 162/309/108 158/303/67
f 163/316/66 165/317/76 166/313/111 164/318/112
f 157/304/67 166/313/111 165/317/76 156/301/67
f 156/306/14 165/319/14 163/320/14 152/300/14
f 152/321/66 163/316/66 164/318/112 153/322/102
f 167/323/113 169/308/107 170/307/106 168/324/114
f 167/323/113 174/325/115 173/312/110 169/308/107
f 170/307/106 171/310/109 172/326/116 168/324/114
f 164/318/112 174/325/115 167/323/113 153/322/102
f 166/313/111 173/312/110 174/325/115 164/318/112
f 153/322/102 167/323/113 168/324/114 154/293/103
f 154/293/103 168/324/114 172/326/116 160/294/105
f 160/294/105 172/326/116 171/310/109 162/309/108
